<?xml version="1.0" encoding="utf-8"?>
<!-- Generator: Adobe Illustrator 24.0.0, SVG Export Plug-In . SVG Version: 6.00 Build 0)  -->
<svg version="1.1" id="Capa_1" xmlns="http://www.w3.org/2000/svg" xmlns:xlink="http://www.w3.org/1999/xlink" x="0px" y="0px"
	 viewBox="0 0 88.9 90.4" style="enable-background:new 0 0 88.9 90.4;" xml:space="preserve">
<style type="text/css">
	.st0{fill:#608ECC;}
</style>
<g>
	<g>
		<path class="st0" d="M44.4,81.9c-1.8,0-3.3-1.5-3.3-3.3V11.7c0-1.8,1.5-3.3,3.3-3.3c1.8,0,3.3,1.5,3.3,3.3v66.9
			C47.7,80.4,46.2,81.9,44.4,81.9z"/>
	</g>
	<g>
		<path class="st0" d="M65.4,35.9c-0.8,0-1.7-0.3-2.3-1L44.4,16.3L25.8,34.9c-1.3,1.3-3.3,1.3-4.6,0c-1.3-1.3-1.3-3.3,0-4.6
			L42.1,9.4c1.3-1.3,3.3-1.3,4.6,0l20.9,20.9c1.3,1.3,1.3,3.3,0,4.6C67,35.6,66.2,35.9,65.4,35.9z"/>
	</g>
</g>
</svg>
