<?xml version="1.0" encoding="utf-8"?>
<!-- Generator: Adobe Illustrator 24.0.0, SVG Export Plug-In . SVG Version: 6.00 Build 0)  -->
<svg version="1.1" id="Capa_1" xmlns="http://www.w3.org/2000/svg" xmlns:xlink="http://www.w3.org/1999/xlink" x="0px" y="0px"
	 viewBox="0 0 88.9 90.4" style="enable-background:new 0 0 88.9 90.4;" xml:space="preserve">
<style type="text/css">
	.st0{fill:#00BC00;}
	.st1{fill-rule:evenodd;clip-rule:evenodd;fill:#00BC00;}
</style>
<g>
	<path class="st0" d="M4.6,85.1l5.7-21.4c-3.2-5.8-4.9-12.4-4.9-19.1C5.4,23,23.1,5.3,44.8,5.3c21.7,0,39.4,17.7,39.4,39.4
		c0,21.7-17.7,39.4-39.4,39.4c-6.5,0-13-1.6-18.7-4.8L4.6,85.1z M27.2,71.4l1.4,0.8c5,3,10.6,4.5,16.3,4.5c17.6,0,32-14.3,32-32
		c0-17.6-14.3-32-32-32c-17.6,0-32,14.3-32,32c0,5.8,1.6,11.6,4.7,16.6l0.8,1.4l-3.2,11.9L27.2,71.4z"/>
	<path class="st1" d="M59.5,50.2c-1.6-1-3.7-2.1-5.6-1.3c-1.5,0.6-2.4,2.9-3.4,4.1c-0.5,0.6-1.1,0.7-1.8,0.4
		c-5.5-2.2-9.7-5.9-12.8-10.9c-0.5-0.8-0.4-1.4,0.2-2.1c0.9-1.1,2.1-2.3,2.3-3.8c0.2-1.5-0.4-3.2-1-4.5c-0.8-1.7-1.6-4-3.3-5
		c-1.5-0.9-3.5-0.4-4.9,0.7c-2.3,1.9-3.5,4.9-3.4,7.9c0,0.8,0.1,1.7,0.3,2.5c0.5,2,1.4,3.8,2.4,5.5c0.8,1.3,1.6,2.6,2.5,3.8
		c2.9,4,6.6,7.5,10.9,10.1c2.1,1.3,4.4,2.4,6.8,3.2c2.7,0.9,5,1.8,7.9,1.2c3-0.6,6-2.4,7.1-5.3c0.4-0.9,0.5-1.8,0.3-2.7
		C63.6,52.2,61,51.1,59.5,50.2z"/>
</g>
</svg>
