<?xml version="1.0" encoding="utf-8"?>
<!-- Generator: Adobe Illustrator 24.0.0, SVG Export Plug-In . SVG Version: 6.00 Build 0)  -->
<svg version="1.1" id="Capa_1" xmlns="http://www.w3.org/2000/svg" xmlns:xlink="http://www.w3.org/1999/xlink" x="0px" y="0px"
	 viewBox="0 0 88.9 90.4" style="enable-background:new 0 0 88.9 90.4;" xml:space="preserve">
<style type="text/css">
	.st0{fill:url(#SVGID_1_);}
	.st1{fill:url(#SVGID_2_);}
	.st2{fill:url(#SVGID_3_);}
	.st3{fill:url(#SVGID_4_);}
	.st4{fill:url(#SVGID_5_);}
</style>
<g>
	<linearGradient id="SVGID_1_" gradientUnits="userSpaceOnUse" x1="61.4642" y1="14.7675" x2="87.48" y2="14.7675">
		<stop  offset="0" style="stop-color:#94C9AA"/>
		<stop  offset="1" style="stop-color:#608ECC"/>
	</linearGradient>
	<path class="st0" d="M75,1.8c0.8,0.5,0.9,1.3,1,2.1c0.3,5.2,4.4,9.2,9.6,9.4c0.3,0,0.6,0.1,0.9,0.1c0.7,0.2,1,0.7,1,1.4
		c0,0.7-0.4,1.2-1.2,1.3c-0.8,0.1-1.6,0.1-2.4,0.3c-4.5,1-7.6,4.7-7.9,9.2c-0.1,1.4-0.6,2.1-1.5,2.1c-0.9,0-1.4-0.7-1.5-2.1
		c-0.3-4.9-4.1-8.9-9-9.4c-0.4,0-0.8-0.1-1.2-0.1c-0.8-0.1-1.3-0.7-1.4-1.4c0-0.7,0.5-1.3,1.3-1.4c0.6-0.1,1.2-0.1,1.8-0.2
		c4.7-0.8,8.1-4.6,8.4-9.4c0-0.8,0.3-1.5,1-2C74.3,1.8,74.7,1.8,75,1.8z"/>
	<linearGradient id="SVGID_2_" gradientUnits="userSpaceOnUse" x1="1.3832" y1="53.1381" x2="62.9182" y2="53.1381">
		<stop  offset="0" style="stop-color:#94C9AA"/>
		<stop  offset="1" style="stop-color:#608ECC"/>
	</linearGradient>
	<path class="st1" d="M15,61.2c-0.5,0.7-1,1.4-1.5,2c-0.7,0.9-1.6,1-2.3,0.2c-2.6-2.6-5.4-5.2-7.8-8c-2.6-2.9-2.5-6.7,0.1-9.7
		c3-3.4,6-6.7,9-10c0.4-0.4,1.1-0.6,1.7-0.8c0.3-0.1,0.6,0,1.2,0c-2.4-2.6-3.4-5.5-2.9-8.9c0.3-2.2,1.3-4.1,2.9-5.6
		c3.4-3.3,8.5-3.8,12.6-1.3c3.2,2,6.2,6.9,3.6,13.1c0.3-0.2,0.5-0.3,0.8-0.5c4.5-3.1,8.9-6.2,13.4-9.3c1.3-0.9,1.9-0.8,2.9,0.5
		c1.2,1.6,2.4,3.3,3.7,4.9c0.9,1.2,0.8,1.9-0.5,2.7c-6.2,4.4-12.4,8.8-18.6,13.2c-0.5,0.4-0.7,0.7-0.7,1.3c0,2.1,0,4.1,0,6.2
		c0,0.3,0,0.6,0,0.9c0.4,0,0.8,0,1.1,0c2.7,0,5.4-0.1,8.1,0.1c3.5,0.2,6.5,3.1,6.6,6.6c0.1,3.7,0.1,7.3,0.1,11c0,0.3,0,0.7,0,1.1
		c0.4,0,0.8,0,1.1,0c3.8,0,7.5,0,11.3,0c1.7,0,2.1,0.4,2.1,2.1c0,4.4,0,8.8,0,13.2c0,1.6-0.5,2-2,2c-9.3,0-18.5,0-27.8,0
		c-1.6,0-2-0.5-2-2c0-4.5,0-8.9,0-13.4c0-1.5,0.5-1.9,1.9-1.9c1.2,0,2.5,0,3.8,0c0-2.4,0-4.8,0-7.2c-3.3,0-6.6,0-10.1,0
		c0,0.3,0,0.7,0,1c0,7.1,0,14.2,0,21.4c0,1.8-0.4,2.2-2.2,2.2c-2.5,0-5,0-7.5,0c-1.4,0-1.9-0.5-1.9-2c0-8.1,0-16.3,0-24.4
		c0-0.3,0-0.6,0-0.9C15.1,61.3,15,61.3,15,61.2z M45.5,71.2c0-0.3,0-0.6,0-0.8c0-3.4,0-6.8,0-10.3c0-3.1-1.7-4.8-4.8-4.8
		c-3,0-5.9,0-8.9,0c-1.8,0-2.2-0.4-2.2-2.2c0-2.9,0-5.8,0-8.6c0-1.1,0.4-1.8,1.2-2.4c5.9-4.1,11.7-8.3,17.5-12.5
		c0.3-0.2,0.6-0.4,0.9-0.7c-0.9-1.2-1.7-2.3-2.6-3.4c-0.2,0.1-0.3,0.1-0.3,0.2c-5.6,3.8-11.1,7.7-16.6,11.5
		c-0.3,0.2-0.5,0.5-0.7,0.8c-1.3,2.5-2.5,5-3.8,7.4c-0.2,0.5-0.8,0.9-1.3,1.1c-0.8,0.2-1.3-0.3-1.6-1c-1.2-2.3-2.3-4.6-3.5-7
		c-0.2-0.4-0.5-0.6-1-0.6c-1,0-2,0-3,0c-0.3,0-0.8,0.2-1,0.4c-2.8,3.1-5.6,6.2-8.4,9.3c-1.8,2.1-1.8,4.5,0.2,6.4
		c1.3,1.3,2.5,2.5,3.8,3.8c0.8,0.8,1.6,1.6,2.5,2.5c0.9-1.2,1.7-2.3,2.5-3.4c-0.2-0.2-0.4-0.5-0.6-0.7c-1.3-1.4-2.6-2.7-3.9-4.1
		c-0.7-0.8-0.8-1.5-0.2-2.2c1.9-2,3.9-4,5.9-5.9c0.3-0.3,1.1-0.4,1.5-0.2c0.4,0.2,0.7,0.8,0.9,1.2c0.1,0.3,0,0.6,0,0.9
		c0,12.9,0,25.7,0,38.6c0,0.3,0,0.7,0,1c2,0,3.8,0,5.8,0c0-0.4,0-0.7,0-1.1c0-7,0-14.1,0-21.1c0-0.2,0-0.5,0-0.7
		c0.1-1.2,0.6-1.7,1.8-1.7c4.1,0,8.3,0,12.4,0c1.3,0,1.8,0.5,1.8,1.8c0,2.4,0,4.9,0,7.3c0,0.3,0,0.6,0,1
		C41.7,71.2,43.5,71.2,45.5,71.2z M60,74.2c-8.7,0-17.3,0-26,0c0,3.9,0,7.7,0,11.4c8.7,0,17.3,0,26,0C60,81.8,60,78,60,74.2z
		 M29.6,27.8c0-4-3.2-7.2-7.2-7.2c-3.9,0-7.2,3.3-7.2,7.2c0,3.9,3.3,7.2,7.2,7.2C26.3,35,29.6,31.8,29.6,27.8z M12.9,51.1
		c0.6,0.6,1.3,1.4,2.1,2.3c0-1.6,0-3.1,0-4.5C14.4,49.6,13.7,50.3,12.9,51.1z"/>
	<linearGradient id="SVGID_3_" gradientUnits="userSpaceOnUse" x1="53.3724" y1="31.6705" x2="69.5543" y2="31.6705">
		<stop  offset="0" style="stop-color:#94C9AA"/>
		<stop  offset="1" style="stop-color:#608ECC"/>
	</linearGradient>
	<path class="st2" d="M67.8,25.2c0.6,0.8,1.1,1.5,1.7,2.3c-4.8,3.5-9.6,7-14.5,10.6c-0.6-0.8-1.1-1.5-1.7-2.3
		C58.2,32.3,63,28.8,67.8,25.2z"/>
	<linearGradient id="SVGID_4_" gradientUnits="userSpaceOnUse" x1="53.4102" y1="22.0146" x2="63.694" y2="22.0146">
		<stop  offset="0" style="stop-color:#94C9AA"/>
		<stop  offset="1" style="stop-color:#608ECC"/>
	</linearGradient>
	<path class="st3" d="M62.1,17.9c0.5,0.8,1.1,1.6,1.6,2.4c-2.9,1.9-5.8,3.8-8.7,5.8c-0.5-0.8-1.1-1.6-1.6-2.4
		C56.3,21.8,59.2,19.9,62.1,17.9z"/>
	<linearGradient id="SVGID_5_" gradientUnits="userSpaceOnUse" x1="46.1262" y1="40.8305" x2="51.7835" y2="40.8305">
		<stop  offset="0" style="stop-color:#94C9AA"/>
		<stop  offset="1" style="stop-color:#608ECC"/>
	</linearGradient>
	<path class="st4" d="M47.8,43.4c-0.6-0.8-1.1-1.5-1.7-2.3c1.3-1,2.6-1.9,3.9-2.9c0.6,0.8,1.1,1.5,1.7,2.3
		C50.5,41.5,49.2,42.4,47.8,43.4z"/>
</g>
</svg>
