<?xml version="1.0" encoding="utf-8"?>
<!-- Generator: Adobe Illustrator 24.0.0, SVG Export Plug-In . SVG Version: 6.00 Build 0)  -->
<svg version="1.1" id="Capa_1" xmlns="http://www.w3.org/2000/svg" xmlns:xlink="http://www.w3.org/1999/xlink" x="0px" y="0px"
	 viewBox="0 0 18.7 19" style="enable-background:new 0 0 18.7 19;" xml:space="preserve">
<style type="text/css">
	.st0{fill:#FFFFFF;}
</style>
<g>
	<path class="st0" d="M3.8,4.7l4.5,5.1c0.3,0.3,0.6,0.5,1,0.5c0.4,0,0.8-0.2,1-0.5l4.4-5c0,0,0.1-0.1,0.1-0.1
		c-0.2-0.1-0.4-0.1-0.6-0.1H4.4C4.2,4.5,4,4.6,3.8,4.7C3.8,4.7,3.8,4.7,3.8,4.7z"/>
	<path class="st0" d="M15.6,5.2c0,0.1,0,0.1-0.1,0.1l-4.4,5c-0.4,0.5-1.1,0.8-1.7,0.8c-0.7,0-1.3-0.3-1.7-0.8L3.1,5.3c0,0,0,0,0,0
		C3,5.5,2.9,5.8,2.9,6.1V13c0,0.8,0.7,1.5,1.5,1.5h9.9c0.8,0,1.5-0.7,1.5-1.5V6.1C15.8,5.8,15.7,5.5,15.6,5.2z"/>
</g>
</svg>
