<?xml version="1.0" encoding="utf-8"?>
<!-- Generator: Adobe Illustrator 24.0.0, SVG Export Plug-In . SVG Version: 6.00 Build 0)  -->
<svg version="1.1" id="Capa_1" xmlns="http://www.w3.org/2000/svg" xmlns:xlink="http://www.w3.org/1999/xlink" x="0px" y="0px"
	 viewBox="0 0 18.7 19" style="enable-background:new 0 0 18.7 19;" xml:space="preserve">
<style type="text/css">
	.st0{fill:#FFFFFF;}
</style>
<g>
	<g>
		<path class="st0" d="M9.3,5.6c-1,0-1.8,0.8-1.8,1.8c0,1,0.8,1.8,1.8,1.8c1,0,1.8-0.8,1.8-1.8C11.1,6.5,10.3,5.6,9.3,5.6z"/>
		<path class="st0" d="M9.3,1.7c-3.3,0-6,2.7-6,6c0,2.8,4.4,8,5.7,9.4c0.2,0.2,0.5,0.2,0.7,0c1.3-1.5,5.7-6.6,5.7-9.4
			C15.4,4.4,12.7,1.7,9.3,1.7z M9.3,10.4c-1.6,0-3-1.3-3-3c0-1.6,1.3-3,3-3c1.6,0,3,1.3,3,3C12.3,9.1,11,10.4,9.3,10.4z"/>
	</g>
</g>
</svg>
