<?xml version="1.0" encoding="utf-8"?>
<!-- Generator: Adobe Illustrator 24.0.0, SVG Export Plug-In . SVG Version: 6.00 Build 0)  -->
<svg version="1.1" id="Capa_1" xmlns="http://www.w3.org/2000/svg" xmlns:xlink="http://www.w3.org/1999/xlink" x="0px" y="0px"
	 viewBox="0 0 18.7 19" style="enable-background:new 0 0 18.7 19;" xml:space="preserve">
<style type="text/css">
	.st0{fill:#FFFFFF;}
</style>
<g>
	<path class="st0" d="M17.8,16.8c-0.1,0.3-0.4,0.4-0.7,0.4c-0.6,0-1.3,0-1.9,0c-0.5,0-0.7-0.2-0.7-0.7c0-1.5,0-2.9,0-4.4
		c0-0.6,0-1.2-0.1-1.8c-0.1-1-0.9-1.6-1.9-1.6c-0.8,0-1.5,0.3-2,0.9c-0.3,0.4-0.5,0.8-0.5,1.3c-0.1,0.8-0.1,1.7-0.1,2.5
		c0,1,0,2,0,3.1c0,0.4-0.2,0.6-0.6,0.6c-0.7,0-1.3,0-2,0c-0.4,0-0.6-0.2-0.6-0.6c0-3.2,0-6.3,0-9.5c0-0.4,0.2-0.6,0.6-0.6
		c0.6,0,1.2,0,1.9,0c0.4,0,0.6,0.2,0.6,0.6c0,0.2,0,0.5,0,0.7c0,0.1,0.1,0.2,0.1,0.2C9.7,8,9.8,8,9.8,8c0.4-0.3,0.8-0.7,1.2-1
		c0.6-0.4,1.4-0.6,2.1-0.7c0.8-0.1,1.5,0,2.3,0.3c1.3,0.5,2,1.4,2.3,2.7c0.1,0.3,0.1,0.7,0.1,1c0,0.1,0,0.1,0,0.2
		C17.8,12.6,17.8,14.7,17.8,16.8z"/>
	<path class="st0" d="M0.9,11.9c0-1.6,0-3.1,0-4.7c0-0.5,0.2-0.7,0.7-0.7c0.7,0,1.3,0,2,0c0.4,0,0.6,0.2,0.6,0.6c0,3.1,0,6.3,0,9.4
		c0,0.4-0.2,0.7-0.6,0.7c-0.7,0-1.3,0-2,0c-0.4,0-0.6-0.2-0.6-0.6C0.9,15,0.9,13.4,0.9,11.9z"/>
	<path class="st0" d="M2.5,4.8c-0.3,0-0.7,0-1,0c-0.4,0-0.6-0.2-0.6-0.6c0-0.6,0-1.2,0-1.8c0-0.4,0.2-0.6,0.6-0.6c0.7,0,1.4,0,2.1,0
		C4,1.8,4.2,2,4.2,2.4c0,0.6,0,1.2,0,1.8c0,0.4-0.2,0.6-0.6,0.6C3.2,4.8,2.9,4.8,2.5,4.8z"/>
</g>
</svg>
