<?xml version="1.0" encoding="utf-8"?>
<!-- Generator: Adobe Illustrator 24.0.0, SVG Export Plug-In . SVG Version: 6.00 Build 0)  -->
<svg version="1.1" id="Capa_1" xmlns="http://www.w3.org/2000/svg" xmlns:xlink="http://www.w3.org/1999/xlink" x="0px" y="0px"
	 viewBox="0 0 88.9 90.4" style="enable-background:new 0 0 88.9 90.4;" xml:space="preserve">
<style type="text/css">
	.st0{fill:url(#SVGID_1_);}
	.st1{fill:url(#SVGID_2_);}
	.st2{fill:url(#SVGID_3_);}
	.st3{fill:url(#SVGID_4_);}
	.st4{fill:url(#SVGID_5_);}
	.st5{fill:url(#SVGID_6_);}
	.st6{fill:url(#SVGID_7_);}
	.st7{fill:url(#SVGID_8_);}
</style>
<g>
	<linearGradient id="SVGID_1_" gradientUnits="userSpaceOnUse" x1="12.7203" y1="93.888" x2="89.9923" y2="8.4821">
		<stop  offset="0" style="stop-color:#94C9AA"/>
		<stop  offset="1" style="stop-color:#608ECC"/>
	</linearGradient>
	<path class="st0" d="M87.2,56.7c-0.5,0.6-1.1,0.8-1.9,0.8c-1.2,0-2.3,0-3.6,0c0,0.4,0,0.7,0,1c0,2.7-1.8,4.5-4.5,4.5
		c-3.9,0-7.7,0-11.6,0c-3.6,0-7.1,0-10.7,0c-0.4,0-0.7,0-1.1,0.1c-3.2,1.2-6.5,2.4-9.7,3.6c-0.1,0-0.2,0.1-0.4,0.2
		c0.9,0.6,1.8,1.2,2.7,1.7c2.2,1.4,4.4,2.8,6.6,4.1c0.4,0.2,0.9,0.4,1.3,0.4c3.4,0,6.8,0,10.2,0c2.3,0,3.6,1.3,3.6,3.6
		c0,0.4,0,0.8,0,1.2c-0.1,1.2,0,2.1,1.3,2.8c1.5,0.9,1.9,2.9,1.3,4.5c-0.6,1.7-2.3,2.7-4.1,2.6c-1.7-0.1-3.2-1.4-3.7-3
		c-0.4-1.8,0.2-3.6,1.8-4.4c0.7-0.4,0.9-0.8,0.9-1.5c-0.1-0.7,0-1.5,0-2.3c0-0.6-0.3-0.9-0.9-0.9c-0.2,0-0.3,0-0.5,0
		c-14.1,0-28.1,0-42.2,0c-1.3,0-1.4,0.1-1.4,1.4c0,0.3,0,0.6,0,0.8c-0.1,1.2,0,2.1,1.3,2.9c1.5,0.9,1.9,3,1.2,4.6
		c-0.7,1.6-2.3,2.6-4.1,2.5c-1.8-0.1-3.2-1.4-3.7-3.2c-0.4-1.7,0.3-3.5,1.9-4.3c0.7-0.4,0.9-0.8,0.8-1.5c-0.1-0.8,0-1.7,0-2.5
		c0.1-1.9,1.4-3.2,3.3-3.2c3.2,0,6.5,0,9.7,0c0.2,0,0.5,0,0.8,0c0-1.1,0-2.1,0-3.2c0-0.9,0.3-1.5,1.2-1.8c1.6-0.5,3.2-1.2,4.9-1.8
		c-0.9-0.6-1.7-1-2.4-1.5c-1.8-1.5-3.8-2-6.2-1.8c-1.8,0.2-3.6,0-5.4,0c-0.3,0-0.7,0-0.9-0.1c-0.3-0.3-0.7-0.8-0.8-1.2
		c-0.1-0.6,0.4-1,1-1.1c0.3,0,0.7,0,1,0c17.5,0,35,0,52.5,0c1.7,0,2.3-0.6,2.3-2.3c0-0.2,0-0.4,0-0.7c-23.2,0-46.3,0-69.5,0
		c0,0.3,0,0.5,0,0.7c0,1.6,0.6,2.2,2.2,2.2c2.1,0,4.2,0,6.4,0c0.3,0,0.6,0,0.8,0.1c0.6,0.2,0.9,0.7,0.8,1.3
		c-0.1,0.7-0.6,1.1-1.2,1.1c-2.5,0-5.1,0.1-7.6,0c-2.3-0.1-3.8-2-3.9-4.3c0-0.4,0-0.8,0-1.2c-1.3,0-2.6,0-3.8,0
		c-1.3,0-1.7-0.4-1.7-1.7c0-0.8,0-1.5,0-2.3c0-2.9,1.3-4.6,4.3-5.2c0-0.6,0-1.1,0-1.7c0.1-1.8,1.4-3.2,3.2-3.2c2.3,0,4.6,0,6.9,0
		c1.7,0,3.1,1.4,3.2,3.1c0,0.6,0,1.2,0,1.8c0.4,0,0.7,0,1.1,0c5.1,0,10.3,0,15.4,0c0.4,0,0.8,0,1,0.2c0.3,0.3,0.6,0.9,0.6,1.2
		c-0.1,0.4-0.6,0.8-0.9,1c-0.2,0.1-0.6,0.1-0.9,0.1c-9.4,0-18.9,0-28.3,0c-2.3,0-2.9,0.6-2.9,3c0,0.3,0,0.7,0,1.1
		c26.9,0,53.7,0,80.5,0c0-0.8,0.1-1.5,0-2.2c-0.1-1-1-1.7-2-1.8c-0.3,0-0.6,0-0.9,0c-13.3,0-26.6,0-39.9,0c-0.3,0-0.7,0-1-0.1
		c-0.6-0.2-1-0.6-0.9-1.3c0.1-0.7,0.5-1.1,1.1-1.1c0.3,0,0.6,0,0.8,0c13.1,0,26.3,0,39.4,0c2.9,0,5,0.9,5.9,3.7
		C87.2,53.6,87.2,55.2,87.2,56.7z M34.4,73.2c4.8,0,9.5,0,14.2,0c-0.1-0.1-0.1-0.2-0.1-0.2c-2.5-1.6-5-3.2-7.5-4.7
		c-0.2-0.1-0.5-0.1-0.7-0.1c-1.9,0.7-3.7,1.4-5.5,2.1c-0.2,0.1-0.4,0.3-0.4,0.5C34.4,71.6,34.4,72.4,34.4,73.2z M46.5,63.2
		C46.5,63.2,46.5,63.1,46.5,63.2c-2.9-0.1-5.8-0.1-8.9-0.1c1.1,0.7,2.1,1.3,3.1,1.9c0.2,0.1,0.4,0.2,0.6,0.1
		C43.1,64.5,44.8,63.9,46.5,63.2z"/>
	<linearGradient id="SVGID_2_" gradientUnits="userSpaceOnUse" x1="-23.4004" y1="61.2074" x2="53.8716" y2="-24.1985">
		<stop  offset="0" style="stop-color:#94C9AA"/>
		<stop  offset="1" style="stop-color:#608ECC"/>
	</linearGradient>
	<path class="st1" d="M28.2,2.4c2.1,0.5,3.5,2,5,3.6c0.5-0.6,1-1.2,1.6-1.8c0.8-0.8,1.6-0.8,2.2,0.2c0.7,1,1.4,2,2,3
		c1.1,1.7,1,3.2-0.2,5.6c0,0.1,0.1,0.1,0.1,0.2c1.9,2,1.9,3.3-0.1,5.3c-0.3,0.3-0.6,0.6-0.8,0.8c-1.4,1.4-3,1.4-4.5,0
		c-0.5-0.5-0.5-0.5-1,0c0.3,0.3,0.5,0.6,0.8,0.8c1,1.1,1,2.7,0,3.8c-0.5,0.6-1.1,1.2-1.7,1.7c-1.4,1.3-3,1.3-4.3,0
		c-0.2-0.2-0.4-0.3-0.6-0.6c-0.2,0.2-0.4,0.3-0.6,0.6c0.3,0.2,0.6,0.4,0.8,0.7c1.1,1.2,1.1,2.8,0,4c-0.5,0.6-1,1.1-1.6,1.6
		c-1.4,1.3-3,1.3-4.4,0c-0.2-0.2-0.4-0.3-0.6-0.5c-1.5,1.1-3.2,1.4-4.9,0.6c-0.5-0.2-0.9-0.5-1.3-0.8c-0.9-0.6-1.7-1.1-2.6-1.7
		c-0.8-0.6-0.8-1.3-0.2-2c0.3-0.3,0.6-0.6,0.9-0.9c0.3-0.3,0.6-0.5,1.1-1c-0.6-0.5-1.3-1-1.8-1.5c-2.6-2.6-2.6-6,0-8.6
		c1.2-1.2,2.3-2.3,3.3-3.3c-0.9-1-1.8-2-2.7-3c-0.2-0.2-0.6-0.2-0.8-0.2c-2.7,0-5.5,0-8.2,0c-1,0-1.6-0.5-1.6-1.3
		c0-0.8,0.6-1.3,1.6-1.3c3,0,6,0,8.9,0c0.5,0,1.1,0.3,1.5,0.6c1.1,0.9,2.1,2,3.2,3c1.7-1.7,3.3-3.3,4.9-4.9c1.2-1.3,2.5-2.5,4.3-2.9
		C26.9,2.4,27.5,2.4,28.2,2.4z M35.8,7c-7.2,7.2-14.3,14.3-21.4,21.4c0.4,0.2,0.8,0.5,1.2,0.8c1.6,1.1,2.5,1,3.9-0.4
		c5.6-5.6,11.2-11.2,16.8-16.8c0.2-0.2,0.4-0.4,0.6-0.6c0.6-0.8,0.8-1.7,0.3-2.6C36.7,8.2,36.2,7.6,35.8,7z"/>
	<linearGradient id="SVGID_3_" gradientUnits="userSpaceOnUse" x1="7.0993" y1="88.8023" x2="84.3713" y2="3.3964">
		<stop  offset="0" style="stop-color:#94C9AA"/>
		<stop  offset="1" style="stop-color:#608ECC"/>
	</linearGradient>
	<path class="st2" d="M84.3,8.7c-2.1,0-4.2,0-6.3,0l-4.9,0c-0.2,0-0.4,0-0.6,0c-7.9,0-15.8,0-23.6,0c-2.1,0-3.3,1.2-3.3,3.3
		c0,7.5,0,15,0,22.5c0,0.4,0,0.8,0.1,1.1c0.4,1.5,1.5,2.2,3.3,2.2c11.4,0,22.9,0,34.3,0c1.9,0,3.2-0.6,3.8-2.4V11.1
		C86.7,9.8,85.9,8.8,84.3,8.7z M84.7,34.2c0,1.1,0,1.2-1.2,1.2H49.3c-1.1,0-1.2,0-1.2-1.2V12.4c0-1.1,0-1.1,1.2-1.1
		c7.7,0,15.3,0,23,0c0.4,0,0.7,0,1.1-0.1l4.8,0.1c1.8,0,3.6,0,5.3,0c1.1,0,1.2,0,1.2,1.2C84.7,19.6,84.7,26.9,84.7,34.2z"/>
	<linearGradient id="SVGID_4_" gradientUnits="userSpaceOnUse" x1="9.231" y1="90.731" x2="86.503" y2="5.3251">
		<stop  offset="0" style="stop-color:#94C9AA"/>
		<stop  offset="1" style="stop-color:#608ECC"/>
	</linearGradient>
	<path class="st3" d="M65.6,22.3c-0.5,0.7-0.9,1.4-1.5,1.9c-0.4,0.4-1,0.7-1.5,0.7c-1,0.1-2.1,0-3.2,0c-0.9,0-1.5-0.5-1.5-1.3
		c0-0.7,0.6-1.2,1.5-1.2c0.1,0,0.1,0,0.2,0c2,0.4,3.4-0.4,4.3-2.2c0.2-0.4,0.5-0.7,0.8-1.1c0.8-0.9,1.8-0.8,2.3,0.3
		c0.9,1.9,1.7,3.7,2.6,5.6c0.1,0.3,0.3,0.5,0.5,1c0.2-1.2,0.4-2.2,0.6-3.2c0.1-0.6,0.3-1.2,1-1.4c0.7-0.2,1.2,0.2,1.6,0.7
		c0.2,0.2,0.4,0.4,0.7,0.7c0.2-0.4,0.4-0.7,0.6-1.1c0.5-1,1.1-2.1,1.6-3.1c0.3-0.6,0.7-1,1.5-0.9c0.7,0.1,1,0.6,1.1,1.3
		c0.1,1,0.2,2.1,0.4,3.3c0.4,0,0.9,0,1.3,0c0.8,0,1.3,0.5,1.3,1.2c0,0.7-0.5,1.2-1.3,1.3c-0.7,0-1.3,0-2,0c-1.2,0-1.5-0.2-1.8-1.5
		c-0.3,0.5-0.6,1-0.8,1.5c-0.9,1.7-1.4,1.8-2.9,0.6c-0.3,1.6-0.6,3.2-0.8,4.8c-0.1,0.7-0.4,1.2-1.1,1.3c-0.8,0.1-1.2-0.3-1.5-1
		c-1.1-2.5-2.3-5.1-3.5-7.6C65.9,22.8,65.8,22.6,65.6,22.3z"/>
	<linearGradient id="SVGID_5_" gradientUnits="userSpaceOnUse" x1="-2.1823" y1="80.4047" x2="75.0897" y2="-5.0012">
		<stop  offset="0" style="stop-color:#94C9AA"/>
		<stop  offset="1" style="stop-color:#608ECC"/>
	</linearGradient>
	<path class="st4" d="M53.3,20.3c-0.5,0-0.9,0-1.4,0c-0.8,0-1.2-0.5-1.2-1.2c0-0.7,0.4-1.2,1.1-1.2c1.1-0.1,2.2-0.1,3.2,0
		c0.7,0,1.1,0.5,1.1,1.3c0,0.7-0.4,1.1-1.2,1.2C54.3,20.3,53.8,20.3,53.3,20.3C53.3,20.3,53.3,20.3,53.3,20.3z"/>
	<linearGradient id="SVGID_6_" gradientUnits="userSpaceOnUse" x1="-4.4614" y1="78.3426" x2="72.8106" y2="-7.0633">
		<stop  offset="0" style="stop-color:#94C9AA"/>
		<stop  offset="1" style="stop-color:#608ECC"/>
	</linearGradient>
	<path class="st5" d="M53.3,13.2c0.5,0,1,0,1.5,0c0.7,0.1,1.1,0.5,1.2,1.2c0,0.7-0.4,1.2-1,1.3c-1.1,0.1-2.2,0.1-3.2,0
		c-0.7,0-1.2-0.7-1.1-1.3c0.1-0.7,0.5-1.1,1.2-1.1C52.3,13.2,52.8,13.2,53.3,13.2z"/>
	<linearGradient id="SVGID_7_" gradientUnits="userSpaceOnUse" x1="0.1171" y1="82.4851" x2="77.3891" y2="-2.9208">
		<stop  offset="0" style="stop-color:#94C9AA"/>
		<stop  offset="1" style="stop-color:#608ECC"/>
	</linearGradient>
	<path class="st6" d="M53.3,22.4c0.5,0,1,0,1.5,0c0.7,0.1,1.1,0.5,1.2,1.2c0,0.7-0.4,1.3-1.1,1.3c-1,0.1-2.1,0-3.1,0
		c-0.7,0-1.2-0.6-1.2-1.3c0-0.7,0.5-1.2,1.2-1.2C52.3,22.4,52.8,22.4,53.3,22.4C53.3,22.4,53.3,22.4,53.3,22.4z"/>
	<linearGradient id="SVGID_8_" gradientUnits="userSpaceOnUse" x1="2.3982" y1="84.5489" x2="79.6702" y2="-0.857">
		<stop  offset="0" style="stop-color:#94C9AA"/>
		<stop  offset="1" style="stop-color:#608ECC"/>
	</linearGradient>
	<path class="st7" d="M53.3,29.5c-0.5,0-1,0-1.5,0c-0.7-0.1-1.1-0.5-1.2-1.2c0-0.7,0.4-1.2,1.1-1.3c1.1-0.1,2.2-0.1,3.3,0
		c0.7,0,1,0.5,1,1.2c0,0.7-0.4,1.1-1,1.2C54.4,29.6,53.8,29.5,53.3,29.5C53.3,29.5,53.3,29.5,53.3,29.5z"/>
</g>
</svg>
