<?xml version="1.0" encoding="utf-8"?>
<!-- Generator: Adobe Illustrator 24.0.0, SVG Export Plug-In . SVG Version: 6.00 Build 0)  -->
<svg version="1.1" id="Capa_1" xmlns="http://www.w3.org/2000/svg" xmlns:xlink="http://www.w3.org/1999/xlink" x="0px" y="0px"
	 viewBox="0 0 88.9 90.4" style="enable-background:new 0 0 88.9 90.4;" xml:space="preserve">
<style type="text/css">
	.st0{fill:#FF0000;}
</style>
<g>
	<path class="st0" d="M8.9,14l29,32.9c1.6,1.9,4,2.9,6.5,2.9c2.5,0,4.9-1.1,6.5-2.9l28.5-32.3c0.2-0.3,0.5-0.5,0.8-0.6
		c-1.2-0.5-2.5-0.8-3.9-0.8H12.6c-1.3,0-2.6,0.3-3.8,0.8C8.8,13.9,8.9,13.9,8.9,14z"/>
	<path class="st0" d="M84.7,17.7c-0.1,0.3-0.3,0.7-0.6,0.9L55.6,51c-2.8,3.2-6.9,5-11.2,5c-4.3,0-8.3-1.8-11.2-5l-29-32.9
		c-0.1-0.1-0.1-0.1-0.2-0.2c-0.9,1.5-1.4,3.2-1.4,5.1v44.6c0,5.4,4.4,9.9,9.9,9.9h63.8c5.4,0,9.9-4.4,9.9-9.9V22.9
		C86.2,21,85.6,19.2,84.7,17.7z"/>
</g>
</svg>
