<?xml version="1.0" encoding="utf-8"?>
<!-- Generator: Adobe Illustrator 24.0.0, SVG Export Plug-In . SVG Version: 6.00 Build 0)  -->
<svg version="1.1" id="Capa_1" xmlns="http://www.w3.org/2000/svg" xmlns:xlink="http://www.w3.org/1999/xlink" x="0px" y="0px"
	 viewBox="0 0 18.7 19" style="enable-background:new 0 0 18.7 19;" xml:space="preserve">
<style type="text/css">
	.st0{fill-rule:evenodd;clip-rule:evenodd;fill:#FFFFFF;}
</style>
<path class="st0" d="M15.5,11.9c-0.7-0.4-1.6-0.9-2.4-0.5c-0.6,0.3-1,1.2-1.4,1.7c-0.2,0.3-0.4,0.3-0.8,0.2
	c-2.3-0.9-4.1-2.5-5.3-4.6C5.4,8.3,5.4,8.1,5.7,7.8c0.4-0.5,0.9-1,1-1.6c0.1-0.6-0.2-1.3-0.4-1.9C5.9,3.6,5.5,2.6,4.8,2.3
	c-0.6-0.4-1.5-0.2-2,0.3c-1,0.8-1.5,2.1-1.4,3.3c0,0.4,0,0.7,0.1,1c0.2,0.8,0.6,1.6,1,2.3c0.3,0.5,0.7,1.1,1,1.6
	c1.2,1.7,2.8,3.1,4.5,4.2c0.9,0.5,1.8,1,2.8,1.3c1.1,0.4,2.1,0.7,3.3,0.5c1.3-0.2,2.5-1,3-2.2c0.1-0.4,0.2-0.8,0.1-1.1
	C17.1,12.7,16.1,12.3,15.5,11.9z"/>
</svg>
