<?xml version="1.0" encoding="utf-8"?>
<!-- Generator: Adobe Illustrator 24.0.0, SVG Export Plug-In . SVG Version: 6.00 Build 0)  -->
<svg version="1.1" id="Capa_1" xmlns="http://www.w3.org/2000/svg" xmlns:xlink="http://www.w3.org/1999/xlink" x="0px" y="0px"
	 viewBox="0 0 88.9 90.4" style="enable-background:new 0 0 88.9 90.4;" xml:space="preserve">
<style type="text/css">
	.st0{fill-rule:evenodd;clip-rule:evenodd;fill:#00BCFF;}
</style>
<path class="st0" d="M75.2,57.2c-3.4-2-7.9-4.3-11.9-2.7c-3.1,1.3-5.1,6.1-7.1,8.6c-1,1.3-2.3,1.5-3.8,0.8
	c-11.6-4.6-20.5-12.4-26.9-23c-1.1-1.7-0.9-3,0.4-4.5c1.9-2.3,4.4-4.9,4.9-7.9c0.5-3.1-0.9-6.7-2.2-9.4c-1.6-3.5-3.4-8.5-6.9-10.4
	c-3.2-1.8-7.5-0.8-10.3,1.5c-4.9,4-7.3,10.3-7.3,16.6c0,1.8,0.2,3.5,0.7,5.3c1,4.1,2.9,8,5,11.6c1.6,2.8,3.4,5.4,5.3,8
	C21.3,60.1,29,67.5,38,72.9c4.5,2.7,9.3,5.1,14.3,6.8c5.6,1.8,10.6,3.8,16.6,2.6c6.3-1.2,12.5-5.1,15.1-11.2
	c0.7-1.8,1.1-3.8,0.7-5.7C83.7,61.5,78.4,59.1,75.2,57.2z"/>
</svg>
