<?xml version="1.0" encoding="utf-8"?>
<!-- Generator: Adobe Illustrator 24.0.0, SVG Export Plug-In . SVG Version: 6.00 Build 0)  -->
<svg version="1.1" id="Capa_1" xmlns="http://www.w3.org/2000/svg" xmlns:xlink="http://www.w3.org/1999/xlink" x="0px" y="0px"
	 viewBox="0 0 88.9 90.4" style="enable-background:new 0 0 88.9 90.4;" xml:space="preserve">
<style type="text/css">
	.st0{fill:url(#SVGID_1_);}
	.st1{fill:url(#SVGID_2_);}
	.st2{fill:url(#SVGID_3_);}
	.st3{fill:url(#SVGID_4_);}
	.st4{fill:url(#SVGID_5_);}
	.st5{fill:url(#SVGID_6_);}
	.st6{fill:url(#SVGID_7_);}
	.st7{fill:url(#SVGID_8_);}
	.st8{fill:url(#SVGID_9_);}
</style>
<g>
	<g>
		<linearGradient id="SVGID_1_" gradientUnits="userSpaceOnUse" x1="6.3952" y1="81.2419" x2="80.2556" y2="-2.4665">
			<stop  offset="0" style="stop-color:#94C9AA"/>
			<stop  offset="1" style="stop-color:#608ECC"/>
		</linearGradient>
		<path class="st0" d="M70.2,87.4c-0.3,0-0.5,0-0.8,0c-2.6-0.9-5.2-1.8-7.8-2.6c-0.1,0-0.3-0.1-0.5,0c-2.6,0.9-5.2,1.8-7.8,2.7
			c-0.3,0-0.5,0-0.8,0c-0.8-0.4-1.1-1.1-1-2c0-5.1,0-10.2,0-15.3c0-0.3,0-0.6,0-1c-0.4,0-0.8,0-1.1,0c-13.6,0-27.1,0-40.7,0
			c-4.5,0-7.5-3-7.5-7.5c0-17.1,0-34.2,0-51.2c0-0.7,0.1-1.5,0.3-2.2C3.4,4.9,6,3,9.5,2.9c4.6,0,9.1,0,13.7,0c18.6,0,37.3,0,55.9,0
			c1.9,0,3.6,0.5,5.1,1.7c1.4,1.2,2.1,2.8,2.5,4.5c0,17.9,0,35.7,0,53.6c0,0.2-0.1,0.3-0.1,0.5c-0.6,3.2-2.9,5.4-6.2,5.7
			c-2.3,0.2-4.6,0.1-6.9,0.1c-0.7,0-1.5,0-2.3,0c0,0.4,0,0.7,0,1c0,5.1,0,10.3,0,15.4C71.2,86.4,70.9,87,70.2,87.4z M74.1,5.8
			c-19.8,0-39.5,0-59.3,0c-1.1,5.5-4.3,8.7-9.8,9.8c0,13.7,0,27.3,0,41c5.4,1.1,8.7,4.3,9.8,9.7c12.2,0,24.4,0,36.6,0
			c0-0.3,0-0.6,0-0.8c0-2.2,0-4.3,0-6.5c0-0.7-0.2-1-0.8-1.2c-2.1-0.6-3.2-2.1-3.2-4.3c0-1.6-0.4-3-1.4-4.3c-1.2-1.7-1.3-3.6,0-5.2
			c1.5-1.8,1.2-3.8,1.6-5.9c-6.3,0-12.5,0-18.7,0c0-1,0-1.8,0-2.8c0.4,0,0.7,0,1,0c6.8,0,13.5,0,20.3,0c0.5,0,1.2-0.1,1.6-0.3
			c0.8-0.5,1.5-1.1,2-1.8c1.7-2,3-2.5,5.4-1.8c1.4,0.4,2.7,0.5,4,0c2.2-0.8,4.1-0.2,5.4,1.8c0.8,1.1,1.8,1.9,3.1,2.3
			c2.3,0.7,3.4,2.2,3.4,4.6c0,1.4,0.3,2.7,1.3,3.8c0.1,0.1,0.2,0.3,0.3,0.5c0.9,1.5,1,3.1,0,4.6c-1.1,1.5-1.7,3.2-1.6,5
			c0,0.1,0,0.2,0,0.2c-0.2,1.4-0.8,2.7-2.1,3c-1.9,0.6-2,1.8-1.9,3.4c0.1,1.6,0,3.2,0,4.9c0,0.3,0,0.5,0,0.8c1,0,1.9,0,2.9,0
			c1.1-5.5,4.4-8.7,9.7-9.7c0-13.7,0-27.3,0-41C78.4,14.5,75.1,11.2,74.1,5.8z M54.3,60.8c0,7.7,0,15.4,0,23.2
			c1.4-0.5,2.7-0.8,3.9-1.3c2.1-0.9,4-0.9,6.1,0c1.2,0.6,2.6,0.9,3.9,1.3c0-7.8,0-15.6,0-23.5c-0.9,1.1-1.8,1.7-3,1.6
			c-0.7,0-1.5-0.2-2.2-0.4c-1.2-0.4-2.3-0.3-3.5,0c-1,0.3-2,0.4-3,0.2C55.8,61.9,55.1,61.2,54.3,60.8z M65.3,59.4
			c0.3-0.2,0.7-0.5,1-0.9c1.2-1.8,2.8-3,4.9-3.5c0.8-0.2,1.2-0.8,1.2-1.6c-0.1-2.2,0.5-4.1,1.9-5.8c0.5-0.6,0.5-1.3,0-2
			c-1.3-1.7-2-3.6-1.9-5.7c0-1-0.4-1.5-1.4-1.8c-2-0.5-3.5-1.6-4.6-3.4c-0.6-0.9-1.3-1.1-2.3-0.7c-1.9,0.7-3.8,0.7-5.6,0
			c-1-0.4-1.7-0.1-2.3,0.8c-1.1,1.7-2.6,2.8-4.5,3.3c-1,0.3-1.5,0.9-1.5,2c0.1,2-0.5,3.8-1.7,5.4c-0.6,0.8-0.7,1.6,0,2.4
			c1.2,1.6,1.9,3.3,1.8,5.3c-0.1,1,0.4,1.7,1.4,2c1.9,0.5,3.4,1.6,4.5,3.3c0.6,0.9,1.4,1.2,2.4,0.8c1.8-0.7,3.6-0.7,5.5,0
			C64.4,59.2,64.7,59.3,65.3,59.4z"/>
		<linearGradient id="SVGID_2_" gradientUnits="userSpaceOnUse" x1="-4.7875" y1="71.3748" x2="69.0729" y2="-12.3337">
			<stop  offset="0" style="stop-color:#94C9AA"/>
			<stop  offset="1" style="stop-color:#608ECC"/>
		</linearGradient>
		<path class="st1" d="M19.1,16.9c0-0.9,0-1.8,0-2.7c16.9,0,33.7,0,50.6,0c0,0.9,0,1.8,0,2.7C52.9,16.9,36,16.9,19.1,16.9z"/>
		<linearGradient id="SVGID_3_" gradientUnits="userSpaceOnUse" x1="-1.2833" y1="74.4668" x2="72.5771" y2="-9.2417">
			<stop  offset="0" style="stop-color:#94C9AA"/>
			<stop  offset="1" style="stop-color:#608ECC"/>
		</linearGradient>
		<path class="st2" d="M27.6,24c0-0.9,0-1.8,0-2.7c11.2,0,22.4,0,33.7,0c0,0.9,0,1.8,0,2.7C50,24,38.8,24,27.6,24z"/>
		<linearGradient id="SVGID_4_" gradientUnits="userSpaceOnUse" x1="2.4024" y1="77.7189" x2="76.2628" y2="-5.9896">
			<stop  offset="0" style="stop-color:#94C9AA"/>
			<stop  offset="1" style="stop-color:#608ECC"/>
		</linearGradient>
		<path class="st3" d="M12.1,49.5c9.3,0,18.6,0,28,0c0,0.9,0,1.8,0,2.7c-9.3,0-18.6,0-28,0C12.1,51.3,12.1,50.4,12.1,49.5z"/>
		<linearGradient id="SVGID_5_" gradientUnits="userSpaceOnUse" x1="5.8692" y1="80.7778" x2="79.7296" y2="-2.9307">
			<stop  offset="0" style="stop-color:#94C9AA"/>
			<stop  offset="1" style="stop-color:#608ECC"/>
		</linearGradient>
		<path class="st4" d="M17.7,59.2c0-0.9,0-1.8,0-2.7c5.6,0,11.1,0,16.7,0c0,0.9,0,1.8,0,2.7C28.9,59.2,23.4,59.2,17.7,59.2z"/>
		<linearGradient id="SVGID_6_" gradientUnits="userSpaceOnUse" x1="31.4609" y1="103.3588" x2="105.3214" y2="19.6503">
			<stop  offset="0" style="stop-color:#94C9AA"/>
			<stop  offset="1" style="stop-color:#608ECC"/>
		</linearGradient>
		<path class="st5" d="M65.5,65c0,0.9,0,1.8,0,2.7c-0.9,0-1.8,0-2.7,0c0-0.9,0-1.8,0-2.7C63.7,65,64.5,65,65.5,65z"/>
		<linearGradient id="SVGID_7_" gradientUnits="userSpaceOnUse" x1="34.244" y1="105.8144" x2="108.1044" y2="22.1059">
			<stop  offset="0" style="stop-color:#94C9AA"/>
			<stop  offset="1" style="stop-color:#608ECC"/>
		</linearGradient>
		<path class="st6" d="M62.8,70.6c0.9,0,1.8,0,2.7,0c0,0.9,0,1.8,0,2.7c-0.9,0-1.7,0-2.7,0C62.8,72.4,62.8,71.5,62.8,70.6z"/>
		<linearGradient id="SVGID_8_" gradientUnits="userSpaceOnUse" x1="37.0448" y1="108.2857" x2="110.9052" y2="24.5772">
			<stop  offset="0" style="stop-color:#94C9AA"/>
			<stop  offset="1" style="stop-color:#608ECC"/>
		</linearGradient>
		<path class="st7" d="M62.8,78.9c0-0.9,0-1.8,0-2.7c0.9,0,1.8,0,2.7,0c0,0.9,0,1.8,0,2.7C64.6,78.9,63.7,78.9,62.8,78.9z"/>
		<linearGradient id="SVGID_9_" gradientUnits="userSpaceOnUse" x1="20.0882" y1="93.324" x2="93.9486" y2="9.6155">
			<stop  offset="0" style="stop-color:#94C9AA"/>
			<stop  offset="1" style="stop-color:#608ECC"/>
		</linearGradient>
		<path class="st8" d="M61.3,56.4c-5.5,0-9.9-4.4-9.9-9.8c0-5.5,4.4-9.8,9.9-9.8c5.4,0,9.8,4.4,9.8,9.8C71.2,52,66.8,56.4,61.3,56.4
			z M61.3,53.6c3.9,0,7-3.1,7-7c0-3.8-3.2-7-7-7c-3.9,0-7,3.1-7,7C54.3,50.4,57.4,53.6,61.3,53.6z"/>
	</g>
</g>
</svg>
