<?xml version="1.0" encoding="utf-8"?>
<!-- Generator: Adobe Illustrator 24.0.0, SVG Export Plug-In . SVG Version: 6.00 Build 0)  -->
<svg version="1.1" id="Capa_1" xmlns="http://www.w3.org/2000/svg" xmlns:xlink="http://www.w3.org/1999/xlink" x="0px" y="0px"
	 viewBox="0 0 299.2 76" style="enable-background:new 0 0 299.2 76;" xml:space="preserve">
<style type="text/css">
	.st0{fill:#94C9AA;}
	.st1{fill:#608ECC;}
</style>
<g>
	<g>
		<path class="st0" d="M78,31.7l-2.8-1.7L75,30.3c-0.8,1-1.8,1.8-2.7,2.2c-1,0.4-2.2,0.7-3.5,0.7c-2.3,0-4.1-0.6-5.4-1.8
			c-1.3-1.2-1.9-2.8-1.9-4.8c0-2,0.7-3.7,2-4.9c1.3-1.2,3.2-1.8,5.6-1.8c1.4,0,2.7,0.2,3.6,0.7c0.9,0.4,1.8,1.2,2.6,2.2l0.2,0.2
			l2.8-1.7L77.9,21c-2.1-2.8-5.1-4.2-8.9-4.2c-3.2,0-5.9,0.9-7.9,2.7c-2,1.8-3,4.2-3,7.2c0,2.9,1,5.2,2.9,7c1.9,1.7,4.5,2.6,7.7,2.6
			c3.7,0,6.7-1.4,9-4.2L78,31.7z"/>
		<polygon class="st0" points="96.5,33 84.9,33 84.9,17 81.6,17 81.6,36 96.5,36 		"/>
		<rect x="99.4" y="16.9" class="st0" width="2.6" height="18.8"/>
		<path class="st0" d="M121.3,30.6c-1.1-1.3-3-3.4-5.6-6.3c-2.6-2.9-4.7-5.3-6.2-7.2l-0.1-0.1h-2.8v19h3.3V22.3L121.7,36h2.8V17
			h-3.3V30.6z"/>
		<rect x="128.7" y="17" class="st0" width="3.3" height="19"/>
		<path class="st0" d="M138.8,33.6c1.9,1.7,4.5,2.6,7.7,2.6c3.7,0,6.7-1.4,9-4.2l0.2-0.3l-2.8-1.7l-0.2,0.2c-0.8,1-1.8,1.8-2.7,2.2
			c-1,0.4-2.2,0.7-3.5,0.7c-2.3,0-4.1-0.6-5.4-1.8c-1.3-1.2-1.9-2.8-1.9-4.8c0-2,0.7-3.7,2-4.9c1.3-1.2,3.2-1.8,5.6-1.8
			c1.4,0,2.7,0.2,3.6,0.7c0.9,0.4,1.8,1.2,2.6,2.2l0.2,0.2l2.8-1.7l-0.2-0.3c-2.1-2.8-5.1-4.2-8.9-4.2c-3.2,0-5.9,0.9-7.9,2.7
			c-2,1.8-3,4.2-3,7.2C136,29.6,136.9,31.9,138.8,33.6z"/>
		<path class="st0" d="M169.1,17h-2.4l-9.5,19h3.7l2.7-5.4h8.6l2.6,5.4h3.6L169.1,17z M170.7,27.6H165l2.9-5.7L170.7,27.6z"/>
		<path class="st1" d="M73.1,50.9c-1.2-0.7-3.4-1.3-6.9-1.9c-1.7-0.3-2.9-0.6-3.5-0.9c-0.7-0.4-1.1-0.9-1.1-1.6
			c0-1.5,1.7-2.3,4.9-2.3c1.8,0,3.1,0.2,3.9,0.7c0.9,0.4,1.4,1.6,1.5,3.4l0,0.3h3.2l0-0.3c-0.1-4.7-3-7-8.6-7
			c-5.4,0-8.2,1.8-8.2,5.3c0,1.9,1,3.4,3,4.3c0.9,0.4,2.5,0.9,4.9,1.4c2,0.4,3.3,0.7,3.8,0.8c0.9,0.2,1.5,0.5,1.8,0.8
			c0.3,0.3,0.4,0.7,0.4,1.3c0,0.8-0.5,1.5-1.5,1.9c-0.9,0.4-2.2,0.6-3.7,0.6c-4.1,0-6.1-1.2-6.1-3.7v-1.4h-3.3V54
			c0,2.4,1.1,4.2,3.2,5.4c1.6,0.9,3.7,1.3,6.2,1.3c2.1,0,3.9-0.4,5.4-1.1c2-1,3.1-2.4,3.1-4.4C75.6,53.2,74.8,51.8,73.1,50.9z"/>
		<path class="st1" d="M86.9,41.4l-9.5,19H81l2.7-5.4h8.6l2.6,5.4h3.6l-9.2-19H86.9z M90.8,52h-5.6l2.9-5.7L90.8,52z"/>
		<path class="st1" d="M115.3,55c-1.1-1.3-3-3.4-5.6-6.3c-2.6-2.9-4.7-5.3-6.2-7.2l-0.1-0.1h-2.8v19h3.3V46.7l11.9,13.7h2.8v-19
			h-3.3V55z"/>
		<path class="st1" d="M141.2,46.1c1.3-1.2,3.2-1.8,5.6-1.8c1.4,0,2.7,0.2,3.6,0.7c0.9,0.4,1.8,1.2,2.6,2.2l0.2,0.2l2.8-1.7
			l-0.2-0.3c-2.1-2.8-5.1-4.2-8.9-4.2c-3.2,0-5.9,0.9-7.9,2.7c-2,1.8-3,4.2-3,7.2c0,2.9,1,5.2,2.9,7c1.9,1.7,4.5,2.6,7.7,2.6
			c3.7,0,6.7-1.4,9-4.2l0.2-0.3l-2.8-1.7l-0.2,0.2c-0.8,1-1.8,1.8-2.7,2.2c-1,0.4-2.2,0.7-3.5,0.7c-2.3,0-4.1-0.6-5.4-1.8
			c-1.3-1.2-1.9-2.8-1.9-4.8C139.2,48.9,139.9,47.3,141.2,46.1z"/>
		<polygon class="st1" points="162.6,41.4 159.4,41.4 159.4,60.4 174.2,60.4 174.2,57.4 162.6,57.4 		"/>
		<polygon class="st1" points="180.1,52.1 191.2,52.1 191.2,49.1 180.1,49.1 180.1,44.4 192.7,44.4 192.7,41.4 176.8,41.4 
			176.8,60.4 192.8,60.4 192.8,57.4 180.1,57.4 		"/>
		<polygon class="st1" points="206.7,55.8 199.1,41.6 199,41.4 195.9,41.4 195.9,60.4 199.1,60.4 199.1,48.5 205.6,60.4 207.9,60.4 
			214.4,48.5 214.4,60.4 217.6,60.4 217.6,41.4 214.5,41.4 		"/>
		<polygon class="st1" points="225.1,52.1 236.2,52.1 236.2,49.1 225.1,49.1 225.1,44.4 237.7,44.4 237.7,41.4 221.8,41.4 
			221.8,60.4 237.8,60.4 237.8,57.4 225.1,57.4 		"/>
		<path class="st1" d="M255.6,55c-1.1-1.3-3-3.4-5.6-6.3c-2.6-2.9-4.7-5.3-6.2-7.2l-0.1-0.1h-2.8v19h3.3V46.7l11.9,13.7h2.8v-19
			h-3.3V55z"/>
		<polygon class="st1" points="261.6,44.4 268.6,44.4 268.6,60.4 271.9,60.4 271.9,44.4 278.9,44.4 278.9,41.4 261.6,41.4 		"/>
		<polygon class="st1" points="284.9,57.4 284.9,52.1 296,52.1 296,49.1 284.9,49.1 284.9,44.4 297.5,44.4 297.5,41.4 281.6,41.4 
			281.6,60.4 297.6,60.4 297.6,57.4 		"/>
	</g>
	<g>
		<path class="st1" d="M27.2,58.7C15.8,58.7,6.5,49.4,6.5,38s9.3-20.7,20.7-20.7c9.5,0,17.5,6.4,19.9,15.2
			c-2.5-10.3-11.7-17.9-22.7-17.9C11.5,14.6,1,25.1,1,38s10.5,23.4,23.4,23.4c11,0,20.3-7.6,22.7-17.9
			C44.7,52.2,36.7,58.7,27.2,58.7z"/>
		<g>
			<path class="st0" d="M31.5,36.2c-10.6-7.6-14.4-13.1-15.1-14C9.5,8.9,27,3.2,27,3.2c-2.6,0-4.6,0.1-6.5,0.8
				c-1,0.4-2.9,1.4-4.2,2.6c-1,1-1.8,2-2.8,3.5c-3.4,5.2-3.4,10.5-0.2,15.6c1.2,2,2.8,3.8,4.7,5.3c6.1,5,11.4,9,11.8,9.3
				c0.5,0.3,6.4,4.2,8.2,11.6c0.7,3.1,0.6,6.3-0.3,9.6c0.6-1.2,1.1-2.4,1.5-3.7C43.2,43.6,34.1,38.5,31.5,36.2z"/>
			<path class="st0" d="M36.8,52.2c-1.7-7.1-7.7-10.8-7.7-10.9l0,0c-0.1,0-5.5-4.1-11.8-9.3c-2-1.6-3.6-3.5-4.9-5.6
				C8,19.4,10,13.3,12.5,9.4c0.3-0.4,0.6-0.9,0.9-1.2c-1.1,1.1-2,2.2-2.6,3.2c-10.6,18.7,10.9,29.3,18,35.8
				C41,59.4,30,67.6,21.8,72.8c3.7-1,6.6-2.4,8.9-3.9c3.4-2.2,5.6-5.7,6.3-9.7C37.4,56.8,37.4,54.4,36.8,52.2z"/>
		</g>
	</g>
</g>
</svg>
