<?xml version="1.0" encoding="utf-8"?>
<!-- Generator: Adobe Illustrator 24.0.0, SVG Export Plug-In . SVG Version: 6.00 Build 0)  -->
<svg version="1.1" id="Capa_1" xmlns="http://www.w3.org/2000/svg" xmlns:xlink="http://www.w3.org/1999/xlink" x="0px" y="0px"
	 viewBox="0 0 18.5 50.6" style="enable-background:new 0 0 18.5 50.6;" xml:space="preserve">
<style type="text/css">
	.st0{clip-path:url(#SVGID_2_);}
	.st1{opacity:0.25;}
	.st2{fill:#94C9AA;}
</style>
<g>
	<g>
		<g>
			<defs>
				<rect id="SVGID_1_" y="0" width="18.5" height="50.6"/>
			</defs>
			<clipPath id="SVGID_2_">
				<use xlink:href="#SVGID_1_"  style="overflow:visible;"/>
			</clipPath>
			<g class="st0">
				<g class="st1">
					<g>
						<path class="st2" d="M12.1,30.9c0.6-1.2,1-2.5,1.3-3.8c-1.6,3.1-3.6,5.6-6.2,7.4C1,38.8-6,37.8-6.6,37.7
							c-0.5,0-7-0.5-14.9-0.8c-2.4-0.1-4.8,0.2-7,0.9c-5.8,1.7-9.3,5.7-10.2,11.8c-0.3,1.8-0.4,3-0.2,4.5c0.1,1.7,0.9,3.8,1.4,4.7
							c0.9,1.8,2.3,3.2,4.3,4.9c0,0-9.3-15.8,4.7-21.2c1-0.3,7.5-1.9,20.5-0.6C-4.6,41.9,5.6,44.1,12.1,30.9z"/>
						<path class="st2" d="M11.1,28.4c2.1-3.4,2.7-7.5,1.7-11.4c-0.7-2.6-1.9-5.6-4-8.8c2.7,9.2,5.5,22.6-11.7,23.8
							c-9.6,0.1-32.6-6.1-37.1,14.9c-0.2,1.2-0.3,2.6-0.2,4.1c0.1-0.5,0.1-1,0.2-1.5c0.7-4.5,3.1-10.4,11-12.8
							c2.4-0.7,4.8-1,7.4-0.9c8.2,0.2,14.9,0.8,15,0.8h0.1c0.1,0,7,1.1,13-3.1C8.4,32.2,10,30.5,11.1,28.4z"/>
					</g>
				</g>
				<g class="st1">
					<g>
						<g>
							<path class="st2" d="M13.5,25.6c-0.3,1.3-0.7,2.6-1.3,3.8C6.5,41.4-2.4,40.8-6.6,40.6c-0.5-0.1-0.9-0.1-1.3-0.1l0,0
								C-19.4,39.3-26,40.4-28.3,41l0,0c-3.7,1.4-6,3.7-7.1,6.7C-37.6,54.1-33,62-33,62.1l0.2,0.3l-0.2-0.2
								c-1.9-1.6-3.4-3.1-4.3-4.9c-0.5-0.9-1.3-3-1.4-4.7c-0.1-1.4-0.1-2.6,0.2-4.4c0.9-6.1,4.3-10.1,10.2-11.9c2.2-0.7,4.6-1,7-0.9
								c8,0.2,14.6,0.8,14.9,0.8c0.7,0.2,7.5,1.1,13.7-3.2C9.8,31.2,11.9,28.7,13.5,25.6l0.1-0.4L13.5,25.6z M-6.6,36.3
								c-0.3,0-6.9-0.5-14.9-0.8c-2.4-0.1-4.8,0.2-7,0.9c-5.9,1.8-9.3,5.7-10.2,11.8c-0.3,1.8-0.3,3-0.2,4.4
								c0.2,1.7,0.9,3.8,1.4,4.7c0.9,1.7,2.3,3.1,4.1,4.7c-0.7-1.5-4.2-8.5-2.2-14.3c1.1-3.1,3.5-5.4,7.2-6.8l0,0
								c2.3-0.5,8.9-1.7,20.5-0.5c0.4,0,0.8,0.1,1.3,0.1c4.2,0.3,13,0.8,18.6-11c0.5-1.1,0.9-2.2,1.2-3.3c-1.5,2.9-3.5,5.3-6,7
								C3.1,36.1-1.3,36.6-4,36.6C-5.3,36.6-6.3,36.4-6.6,36.3z"/>
						</g>
						<g>
							<path class="st2" d="M9.2,6.5c1.9,2.9,3.2,5.9,4,8.8c1,3.9,0.4,8.1-1.7,11.5c-1.3,2.1-2.9,3.9-4.8,5.2
								c-6,4.2-12.9,3.1-13,3.1l0,0c-0.1,0-6.8-0.5-15-0.8c-2.6-0.1-5.1,0.2-7.4,0.9c-7.9,2.4-10.3,8.3-11,12.8
								c-0.1,0.5-0.2,1-0.2,1.5H-40c-0.1-1.3,0-2.6,0.2-4.1c2.9-13.3,13.1-15.7,22.7-15.7c3,0,6,0.3,8.6,0.5
								c2.3,0.2,4.3,0.3,5.9,0.3C3,30.1,6.9,28.4,9,25.3c3.3-4.8,1.9-12.1,0-18.6L8.9,6.4L9.2,6.5z M-8.6,30.3
								c-10.9-0.8-27.5-2.2-31.2,15.2c-0.2,1.2-0.2,2.3-0.2,3.4c0-0.3,0.1-0.6,0.1-0.8c0.7-4.6,3.2-10.5,11.1-12.8
								c2.3-0.7,4.8-1,7.4-0.9c8.2,0.2,14.9,0.8,15,0.8h0.1c0.1,0.1,7,1.2,12.9-3c1.8-1.3,3.4-3,4.7-5.1c2.1-3.4,2.7-7.6,1.7-11.4
								c-0.7-2.9-2-5.7-3.8-8.5c0.9,2.8,1.7,6.1,1.9,9.3c0.2,3.8-0.4,6.7-2,9C7,28.5,3,30.3-2.6,30.7c-0.1,0-0.2,0-0.3,0
								C-4.5,30.7-6.4,30.5-8.6,30.3z"/>
						</g>
					</g>
				</g>
			</g>
		</g>
	</g>
</g>
</svg>
