<?xml version="1.0" encoding="utf-8"?>
<!-- Generator: Adobe Illustrator 24.0.0, SVG Export Plug-In . SVG Version: 6.00 Build 0)  -->
<svg version="1.1" id="Capa_1" xmlns="http://www.w3.org/2000/svg" xmlns:xlink="http://www.w3.org/1999/xlink" x="0px" y="0px"
	 viewBox="0 0 18.5 50.6" style="enable-background:new 0 0 18.5 50.6;" xml:space="preserve">
<style type="text/css">
	.st0{clip-path:url(#SVGID_2_);}
	.st1{opacity:0.25;}
	.st2{fill:#94C9AA;}
</style>
<g>
	<g>
		<g>
			<defs>
				<rect id="SVGID_1_" width="18.5" height="50.6"/>
			</defs>
			<clipPath id="SVGID_2_">
				<use xlink:href="#SVGID_1_"  style="overflow:visible;"/>
			</clipPath>
			<g class="st0">
				<g class="st1">
					<g>
						<path class="st2" d="M26.5,41.9c13-1.3,19.5,0.3,20.5,0.6c14,5.4,4.7,21.2,4.7,21.2c2-1.7,3.4-3.1,4.3-4.9
							c0.5-0.9,1.3-3,1.4-4.7c0.2-1.5,0.1-2.7-0.2-4.5c-0.9-6.1-4.4-10.1-10.2-11.8c-2.2-0.7-4.6-1-7-0.9
							c-7.9,0.3-14.4,0.8-14.9,0.8c-0.6,0.1-7.6,1.1-13.8-3.2c-2.6-1.8-4.6-4.3-6.2-7.4c0.3,1.3,0.7,2.6,1.3,3.8
							C12.9,44.1,23.1,41.9,26.5,41.9z"/>
						<path class="st2" d="M12,33.5c6,4.2,12.9,3.1,13,3.1h0.1c0.1,0,6.8-0.6,15-0.8c2.6-0.1,5,0.2,7.4,0.9
							c7.9,2.4,10.3,8.3,11,12.8c0.1,0.5,0.1,1,0.2,1.5c0.1-1.5,0-2.9-0.2-4.1C54,25.9,31,32.1,21.4,32C4.2,30.8,7,17.4,9.7,8.2
							c-2.1,3.2-3.3,6.2-4,8.8c-1,3.9-0.4,8,1.7,11.4C8.5,30.5,10.1,32.2,12,33.5z"/>
					</g>
				</g>
				<g class="st1">
					<g>
						<g>
							<path class="st2" d="M4.9,25.2l0.2,0.4c1.5,3.1,3.6,5.6,6.1,7.4c6.2,4.3,13,3.4,13.7,3.2c0.3,0,6.9-0.6,14.9-0.8
								c2.4-0.1,4.8,0.2,7,0.9c5.9,1.8,9.3,5.8,10.2,11.9c0.3,1.8,0.3,3,0.2,4.4c-0.1,1.7-0.9,3.8-1.4,4.7c-0.9,1.8-2.4,3.3-4.3,4.9
								l-0.2,0.2l0.2-0.3c0-0.1,4.6-8,2.4-14.4c-1.1-3-3.4-5.3-7.1-6.7l0,0c-2.3-0.6-8.9-1.7-20.4-0.5l0,0c-0.4,0-0.8,0-1.3,0.1
								C20.9,40.8,12,41.4,6.3,29.4c-0.6-1.2-1-2.5-1.3-3.8L4.9,25.2z M22.5,36.6c-2.7,0-7.1-0.5-11.2-3.4c-2.5-1.7-4.5-4.1-6-7
								c0.3,1.1,0.7,2.2,1.2,3.3c5.6,11.8,14.4,11.3,18.6,11c0.5,0,0.9-0.1,1.3-0.1c11.6-1.2,18.2,0,20.5,0.5l0,0
								c3.7,1.4,6.1,3.7,7.2,6.8c2,5.8-1.5,12.8-2.2,14.3c1.8-1.6,3.2-3,4.1-4.7c0.5-0.9,1.2-3,1.4-4.7c0.1-1.4,0.1-2.6-0.2-4.4
								c-0.9-6.1-4.3-10-10.2-11.8c-2.2-0.7-4.6-1-7-0.9c-8,0.3-14.6,0.8-14.9,0.8C24.8,36.4,23.8,36.6,22.5,36.6z"/>
						</g>
						<g>
							<path class="st2" d="M9.6,6.4L9.5,6.7c-1.9,6.5-3.3,13.8,0,18.6c2.1,3.1,6,4.8,11.6,5.2c1.6,0,3.6-0.1,5.9-0.3
								c2.6-0.2,5.6-0.5,8.6-0.5c9.6,0,19.8,2.4,22.7,15.7c0.2,1.5,0.3,2.8,0.2,4.1h-0.1c0-0.5-0.1-1-0.2-1.5
								c-0.7-4.5-3.1-10.4-11-12.8c-2.3-0.7-4.8-1-7.4-0.9c-8.2,0.3-14.9,0.8-15,0.8l0,0c-0.1,0-7,1.1-13-3.1
								c-1.9-1.3-3.5-3.1-4.8-5.2c-2.1-3.4-2.7-7.6-1.7-11.5c0.8-2.9,2.1-5.9,4-8.8L9.6,6.4z M21.4,30.7c-0.1,0-0.2,0-0.3,0
								c-5.6-0.4-9.6-2.2-11.7-5.2c-1.6-2.3-2.2-5.2-2-9c0.2-3.2,1-6.5,1.9-9.3c-1.8,2.8-3.1,5.6-3.8,8.5c-1,3.8-0.4,8,1.7,11.4
								c1.3,2.1,2.9,3.8,4.7,5.1c5.9,4.2,12.8,3.1,12.9,3h0.1c0.1,0,6.8-0.6,15-0.8c2.6-0.1,5.1,0.2,7.4,0.9
								c7.9,2.3,10.4,8.2,11.1,12.8c0,0.2,0.1,0.5,0.1,0.8c0-1.1,0-2.2-0.2-3.4c-3.7-17.4-20.3-16-31.2-15.2
								C24.9,30.5,23,30.7,21.4,30.7z"/>
						</g>
					</g>
				</g>
			</g>
		</g>
	</g>
</g>
</svg>
