<?xml version="1.0" encoding="utf-8"?>
<!-- Generator: Adobe Illustrator 24.0.0, SVG Export Plug-In . SVG Version: 6.00 Build 0)  -->
<svg version="1.1" id="Capa_1" xmlns="http://www.w3.org/2000/svg" xmlns:xlink="http://www.w3.org/1999/xlink" x="0px" y="0px"
	 viewBox="0 0 30.3 30.8" style="enable-background:new 0 0 30.3 30.8;" xml:space="preserve">
<style type="text/css">
	.st0{fill:#FFFFFF;}
	.st1{fill-rule:evenodd;clip-rule:evenodd;fill:#FFFFFF;}
</style>
<g>
	<path class="st0" d="M3.3,27.2L5,20.9c-1-1.7-1.5-3.7-1.5-5.6c0-6.4,5.2-11.7,11.7-11.7C21.7,3.6,27,8.8,27,15.3
		c0,6.4-5.2,11.7-11.7,11.7c-1.9,0-3.8-0.5-5.6-1.4L3.3,27.2z M10,23.2l0.4,0.2c1.5,0.9,3.1,1.3,4.8,1.3c5.2,0,9.5-4.3,9.5-9.5
		c0-5.2-4.3-9.5-9.5-9.5c-5.2,0-9.5,4.3-9.5,9.5c0,1.7,0.5,3.4,1.4,4.9l0.2,0.4l-0.9,3.5L10,23.2z"/>
	<path class="st1" d="M19.6,16.9c-0.5-0.3-1.1-0.6-1.7-0.4c-0.4,0.2-0.7,0.9-1,1.2c-0.1,0.2-0.3,0.2-0.5,0.1
		c-1.6-0.6-2.9-1.7-3.8-3.2c-0.2-0.2-0.1-0.4,0.1-0.6c0.3-0.3,0.6-0.7,0.7-1.1c0.1-0.4-0.1-0.9-0.3-1.3c-0.2-0.5-0.5-1.2-1-1.5
		c-0.5-0.3-1-0.1-1.5,0.2c-0.7,0.6-1,1.5-1,2.3c0,0.2,0,0.5,0.1,0.7c0.1,0.6,0.4,1.1,0.7,1.6c0.2,0.4,0.5,0.8,0.7,1.1
		c0.9,1.2,2,2.2,3.2,3c0.6,0.4,1.3,0.7,2,1c0.8,0.3,1.5,0.5,2.3,0.4c0.9-0.2,1.8-0.7,2.1-1.6c0.1-0.3,0.2-0.5,0.1-0.8
		C20.8,17.5,20.1,17.2,19.6,16.9z"/>
</g>
</svg>
